# xmcd CD database file
#
# Track frame offsets:
#	150
#	21783
#	39208
#	57941
#	83178
#	102211
#	124252
#	146197
#	166291
#	187759
#	200280
#	216600
#
# Disc length: 3154 seconds
#
# Revision: 0
# Processed by: cddbd v1.5.2PL0 Copyright (c) Steve Scherf et al.
# Submitted via: CDex 1.51
#
DISCID=a50c500c
DTITLE=Caecilie Norby - slow fruit
DYEAR=2007
DGENRE=Jazz
TTITLE0=My Man
TTITLE1=Big Time
TTITLE2=First Conversation
TTITLE3=Raised On Blue Moods
TTITLE4=Circus Circus
TTITLE5=Afterglow
TTITLE6=Slow Fruits
TTITLE7=Fools of Love
TTITLE8=Power To The Fools
TTITLE9=Zoeanne
TTITLE10=Moonlight
TTITLE11=Poem and Prayer
EXTD=YEAR: 2007
EXTT0=
EXTT1=
EXTT2=
EXTT3=
EXTT4=
EXTT5=
EXTT6=
EXTT7=
EXTT8=
EXTT9=
EXTT10=
EXTT11=
PLAYORDER=
